<svg id="SvgjsSvg1001" width="288" height="288" xmlns="http://www.w3.org/2000/svg" version="1.1" xmlns:xlink="http://www.w3.org/1999/xlink" xmlns:svgjs="http://svgjs.com/svgjs"><defs id="SvgjsDefs1002"></defs><g id="SvgjsG1008" transform="matrix(1,0,0,1,0,0)"><svg xmlns="http://www.w3.org/2000/svg" data-name="Calque 1" viewBox="0 0 1281.125 979.811" width="288" height="288"><path fill="#30475e" d="M960.02146,1029.71807q-315.75848,0-631.51678.17934c-7.01658.00733-9.0637-.87737-9.05731-8.64593q.39615-480.95769-.0099-961.91562c-.007-8.14349,2.09822-9.24516,9.554-9.24155q630.97615.30481,1261.95236.0141c7.29792-.00324,9.6262.87627,9.61868,9.17423q-.4377,480.9576-.02694,961.91559c.00608,7.65956-1.868,8.71528-8.99838,8.70743Q1275.77967,1029.55865,960.02146,1029.71807Z" transform="translate(-319.437 -50.094)" class="colorfefefe svgShape"></path><path d="M421.01509 786.19177c51.14312-24.42737 101.17163-48.16734 151.06412-72.18945q107.21978-51.62369 214.27331-103.592c19.4541-9.4239 40.22527-12.821 61.492-12.86873q142.21866-.31955 284.43853-.08717c24.52638.0032 45.47174 7.18247 55.71759 31.55389 13.05764 31.05951-7.54668 69.87457-51.6928 69.78035-70.29824-.15011-140.59826.16166-210.89413-.27-9.65394-.05919-13.36317 2.01973-12.33482 12.13906a153.65366 153.65366 0 01.03545 28.07022c-.73569 8.88228 2.05564 11.52852 11.14632 11.43417 46.13977-.47864 92.28838-.03761 138.43092-.3482 28.79466-.19379 57.62416 1.46733 86.38376-1.03883 57.24192-4.98817 101.04693-55.21873 93.26082-114.05028-.79789-6.02852.341-8.64686 5.66149-11.67421q105.28347-59.90586 210.25845-120.35369c23.07982-13.22168 52.48-6.78255 66.6034 14.45281 14.96421 22.49959 10.51335 52.559-11.28522 68.78929-47.10711 35.07384-94.59112 69.64284-141.98165 104.33543q-79.73736 58.37215-159.58754 116.59043c-14.74055 10.757-29.64957 21.28428-44.34668 32.09979-9.35217 6.88208-19.669 9.48589-31.231 9.457-74.62414-.18634-149.252-.5117-223.87249.03867-58.0094.42783-115.42541 5.66931-170.83067 24.898-51.417 17.84466-97.60124 44.22955-136.68765 82.27677-5.67961 5.5287-8.20446 6.712-14.447.40461C534.579 899.4467 478.13412 843.28309 421.01509 786.19177zM897.20255 380.8804c5.10259-20.72808 10.29866-41.43369 15.28579-62.1895 7.43965-30.96265 14.90116-61.9221 21.98631-92.96658 2.19031-9.59713 7.03332-13.63142 17.16958-13.50042 35.24821.45555 29.16778-2.46114 36.73927 27.89686 11.59372 46.48517 23.247 92.9555 35.12265 140.42227 6.33255-6.85192 5.62749-15.14933 7.33568-22.25954q16.04433-66.78427 30.75721-133.885c1.8834-8.51591 5.74421-11.90022 14.47925-12.14053 29.37613-.80816 29.59887-.99428 22.15222 27.68063q-21.73443 83.69292-43.95276 167.26013c-4.03694 15.2642-6.53239 17.172-22.51557 17.21152-44.42142.11-35.43524 2.57574-45.58536-35.42958-9.03476-33.82917-17.368-67.84574-25.952-101.79452-.44093-1.74407-.341-3.61942-3.93363-4.56619-5.27495 21.54709-10.59923 43.09418-15.81728 64.667-5.12952 21.20668-10.50846 42.36335-15.0571 63.69554-2.02415 9.49318-7.258 13.36839-16.34641 13.34863-10.09124-.02191-20.18557.0639-30.27231-.16948-7.1272-.16483-12.11218-3.11294-14.0887-10.71848q-24.4456-94.06276-49.13912-188.06119c-2.14635-8.23331.32058-12.68984 9.92266-13.12632 30.64154-1.39285 30.63794-1.64732 37.38861 27.42123q16.37265 70.501 32.72706 141.00626Q896.40559 380.78175 897.20255 380.8804zM1356.70549 321.64592c16.30872 9.38814 23.68692 23.643 29.97042 38.73925 6.58824 15.82823 13.29774 31.606 19.92731 47.41709 3.51871 8.392.44667 11.76084-8.407 12.30217-31.6211 1.93339-31.564 2.07311-43.54748-27.3269-5.12219-12.56666-10.49565-25.03085-15.74143-37.54727-6.78886-16.198-18.63839-23.24539-36.43929-22.22958-7.26544.41457-7.9466 3.00905-7.9369 8.84727.03651 21.966-.64974 43.93775-.33 65.8966.13045 8.95754-3.46688 11.85224-11.91073 12.34721-29.79342 1.7464-30.25858 1.50959-30.25851-27.59983q.0001-82.11207.0165-164.22413c.01341-16.89959 3.04167-20.03353 20.32553-19.76384 27.65612.43153 55.62133-2.89134 82.81309 4.29436 39.66825 10.48273 55.4112 55.004 31.61259 87.96652C1379.54851 310.80791 1368.7439 315.80725 1356.70549 321.64592zM655.12547 314.86792c-.0001 30.99027-.28034 61.98475.18452 92.96809.12619 8.40954-2.998 11.45168-10.90532 12.1833-29.594 2.73822-30.76916 1.81684-30.83933-27.576-.04476-18.73817-.26526-37.479.00274-56.21286.08334-5.8248-1.18762-8.24719-7.67927-8.14261-21.62391.34849-43.26194.26337-64.88617-.12372-6.3778-.11418-7.53729 2.31171-7.49631 8.09544.16851 23.77988-.4491 47.56673-.15937 71.34352.1069 8.77225-3.18889 12.13275-11.81607 12.65992-30.156 1.84264-30.79608 1.44255-30.794-28.17285.00405-56.93544.18553-113.872-.17213-170.80521-.05584-8.88822 3.33856-12.11665 11.59011-12.901 29.17744-2.77333 31.0442-1.21988 31.2082 27.85544.0935 16.57534.39355 33.15308.18231 49.72443-.06483 5.08549 1.21862 6.80863 6.54547 6.73937 21.98916-.28584 43.98862-.36792 65.97436.02773 6.69792.12051 7.57239-2.70637 7.52066-8.33479-.19858-21.61842.35464-43.24854-.13718-64.85689-.1729-7.59654 3.08322-10.29082 9.67823-10.98166.71615-.075 1.44151-.059 2.15938-.12187 28.10038-2.461 29.83884-.91017 29.83921 26.63394Q655.12608 274.86882 655.12547 314.86792z" transform="translate(-319.437 -50.094)" fill="#ffffff" class="color000 svgShape"></path><path fill="#30475e" d="M1313.04625,301.11617c-17.91531-.07417-17.91861-.07417-17.91993-16.12655-.00106-12.55842.12854-25.1186-.0542-37.67429-.06357-4.36856.93777-6.66435,5.93447-6.32838,8.93045.60049,17.90937-.70945,26.85032.9516,16.8488,3.1301,24.82062,11.30553,25.638,26.77378.819,15.49517-7.20774,26.02117-22.85094,30.78671C1324.2599,301.44391,1317.84575,300.74591,1313.04625,301.11617Z" transform="translate(-319.437 -50.094)" class="colorfefefe svgShape"></path><rect width="32.515" height="364.923" x="839.527" y="73.13" rx="4.234" fill="#ffffff" class="color000 svgShape"></rect><rect width="32.515" height="364.923" x="402.547" y="73.13" rx="4.234" fill="#ffffff" class="color000 svgShape"></rect></svg></g></svg>